<svg width="56" height="56" viewBox="0 0 56 56" fill="none" xmlns="http://www.w3.org/2000/svg">
<rect width="56" height="56" rx="12" fill="black"/>
<path d="M17.3252 41.36C15.4532 41.36 13.9592 40.988 12.8432 40.244C11.7272 39.5 10.9232 38.48 10.4312 37.184C9.93916 35.876 9.69316 34.376 9.69316 32.684V23H14.1572V32.684C14.1572 34.352 14.4332 35.594 14.9852 36.41C15.5492 37.214 16.4612 37.616 17.7212 37.616C18.7292 37.616 19.5632 37.376 20.2232 36.896C20.8952 36.416 21.4532 35.744 21.8972 34.88L21.1052 37.148V23H25.5692V41H21.3932L21.1772 37.868L22.1492 39.128C21.7172 39.68 21.0332 40.19 20.0972 40.658C19.1732 41.126 18.2492 41.36 17.3252 41.36ZM39.0964 41.36C37.7284 41.36 36.5464 41.138 35.5504 40.694C34.5544 40.25 33.6244 39.644 32.7604 38.876L34.0924 37.94L33.8764 41H29.7004V14H34.1644V25.988L33.0844 25.304C33.8764 24.488 34.7584 23.852 35.7304 23.396C36.7144 22.94 37.8364 22.712 39.0964 22.712C40.8604 22.712 42.3424 23.138 43.5424 23.99C44.7424 24.842 45.6484 25.976 46.2604 27.392C46.8844 28.808 47.1964 30.356 47.1964 32.036C47.1964 33.716 46.8844 35.264 46.2604 36.68C45.6484 38.096 44.7424 39.23 43.5424 40.082C42.3424 40.934 40.8604 41.36 39.0964 41.36ZM38.4484 37.688C39.3364 37.688 40.0924 37.448 40.7164 36.968C41.3404 36.488 41.8144 35.828 42.1384 34.988C42.4624 34.136 42.6244 33.152 42.6244 32.036C42.6244 30.92 42.4624 29.942 42.1384 29.102C41.8144 28.25 41.3404 27.584 40.7164 27.104C40.0924 26.624 39.3364 26.384 38.4484 26.384C37.4044 26.384 36.5524 26.624 35.8924 27.104C35.2324 27.584 34.7404 28.25 34.4164 29.102C34.1044 29.942 33.9484 30.92 33.9484 32.036C33.9484 33.152 34.1044 34.136 34.4164 34.988C34.7404 35.828 35.2324 36.488 35.8924 36.968C36.5524 37.448 37.4044 37.688 38.4484 37.688Z" fill="#F5F5F5"/>
</svg>